<mxfile host="app.diagrams.net" modified="2022-11-12T12:19:18.691Z" agent="5.0 (Windows NT 6.3; Win64; x64) AppleWebKit/537.36 (KHTML, like Gecko) Chrome/107.0.0.0 Safari/537.36" etag="VGe_7izB1NNnQfrJNp5i" version="20.5.3" type="github">
  <diagram id="C5RBs43oDa-KdzZeNtuy" name="Page-1">
    <mxGraphModel dx="923" dy="402" grid="1" gridSize="10" guides="1" tooltips="1" connect="1" arrows="1" fold="1" page="1" pageScale="1" pageWidth="827" pageHeight="1169" math="0" shadow="0">
      <root>
        <mxCell id="WIyWlLk6GJQsqaUBKTNV-0" />
        <mxCell id="WIyWlLk6GJQsqaUBKTNV-1" parent="WIyWlLk6GJQsqaUBKTNV-0" />
        <mxCell id="3vGK_Hoz7SdBbXjUs2pl-3" value="&lt;font face=&quot;Tahoma&quot; style=&quot;font-size: 18px;&quot;&gt;انبارها&lt;/font&gt;" style="swimlane;horizontal=0;whiteSpace=wrap;html=1;" vertex="1" parent="WIyWlLk6GJQsqaUBKTNV-1">
          <mxGeometry x="20" y="30" width="730" height="120" as="geometry" />
        </mxCell>
        <mxCell id="3vGK_Hoz7SdBbXjUs2pl-10" value="" style="edgeStyle=orthogonalEdgeStyle;rounded=0;orthogonalLoop=1;jettySize=auto;html=1;fontFamily=Helvetica;fontSize=9;" edge="1" parent="3vGK_Hoz7SdBbXjUs2pl-3" source="3vGK_Hoz7SdBbXjUs2pl-8" target="3vGK_Hoz7SdBbXjUs2pl-9">
          <mxGeometry relative="1" as="geometry" />
        </mxCell>
        <mxCell id="3vGK_Hoz7SdBbXjUs2pl-8" value="&lt;font style=&quot;font-size: 12px;&quot; face=&quot;Helvetica&quot;&gt;کاهش موجودی انبار&lt;/font&gt;" style="points=[[0.145,0.145,0],[0.5,0,0],[0.855,0.145,0],[1,0.5,0],[0.855,0.855,0],[0.5,1,0],[0.145,0.855,0],[0,0.5,0]];shape=mxgraph.bpmn.event;html=1;verticalLabelPosition=bottom;labelBackgroundColor=#ffffff;verticalAlign=top;align=center;perimeter=ellipsePerimeter;outlineConnect=0;aspect=fixed;outline=standard;symbol=message;fontFamily=Tahoma;fontSize=18;" vertex="1" parent="3vGK_Hoz7SdBbXjUs2pl-3">
          <mxGeometry x="50" y="10" width="50" height="50" as="geometry" />
        </mxCell>
        <mxCell id="3vGK_Hoz7SdBbXjUs2pl-12" value="" style="edgeStyle=orthogonalEdgeStyle;rounded=0;orthogonalLoop=1;jettySize=auto;html=1;fontFamily=Helvetica;fontSize=12;" edge="1" parent="3vGK_Hoz7SdBbXjUs2pl-3" source="3vGK_Hoz7SdBbXjUs2pl-9" target="3vGK_Hoz7SdBbXjUs2pl-11">
          <mxGeometry relative="1" as="geometry" />
        </mxCell>
        <mxCell id="3vGK_Hoz7SdBbXjUs2pl-9" value="&lt;font style=&quot;font-size: 12px;&quot;&gt;پر کردن برگه درخواست خرید&lt;/font&gt;" style="whiteSpace=wrap;html=1;fontSize=18;fontFamily=Tahoma;verticalAlign=top;labelBackgroundColor=#ffffff;" vertex="1" parent="3vGK_Hoz7SdBbXjUs2pl-3">
          <mxGeometry x="230" y="20" width="110" height="52.5" as="geometry" />
        </mxCell>
        <mxCell id="3vGK_Hoz7SdBbXjUs2pl-11" value="&lt;font style=&quot;font-size: 12px;&quot;&gt;ااقدام برای دریافت تاییدیه&lt;/font&gt;" style="whiteSpace=wrap;html=1;fontSize=18;fontFamily=Tahoma;verticalAlign=top;labelBackgroundColor=#ffffff;" vertex="1" parent="3vGK_Hoz7SdBbXjUs2pl-3">
          <mxGeometry x="500" y="33.75" width="110" height="52.5" as="geometry" />
        </mxCell>
        <mxCell id="3vGK_Hoz7SdBbXjUs2pl-5" value="&lt;font face=&quot;Tahoma&quot; style=&quot;font-size: 18px;&quot;&gt;مدیریت&lt;/font&gt;" style="swimlane;horizontal=0;whiteSpace=wrap;html=1;" vertex="1" parent="WIyWlLk6GJQsqaUBKTNV-1">
          <mxGeometry x="20" y="150" width="730" height="120" as="geometry" />
        </mxCell>
        <mxCell id="3vGK_Hoz7SdBbXjUs2pl-17" value="" style="edgeStyle=orthogonalEdgeStyle;rounded=0;orthogonalLoop=1;jettySize=auto;html=1;fontFamily=Tahoma;fontSize=12;" edge="1" parent="3vGK_Hoz7SdBbXjUs2pl-5" source="3vGK_Hoz7SdBbXjUs2pl-14" target="3vGK_Hoz7SdBbXjUs2pl-16">
          <mxGeometry relative="1" as="geometry" />
        </mxCell>
        <mxCell id="3vGK_Hoz7SdBbXjUs2pl-14" value="&lt;font face=&quot;Tahoma&quot;&gt;مشاهده و بررسی برگه درخواست خرید&lt;/font&gt;" style="rounded=0;whiteSpace=wrap;html=1;fontFamily=Helvetica;fontSize=12;" vertex="1" parent="3vGK_Hoz7SdBbXjUs2pl-5">
          <mxGeometry x="60" y="20" width="120" height="40" as="geometry" />
        </mxCell>
        <mxCell id="3vGK_Hoz7SdBbXjUs2pl-19" value="" style="edgeStyle=orthogonalEdgeStyle;rounded=0;orthogonalLoop=1;jettySize=auto;html=1;fontFamily=Tahoma;fontSize=12;" edge="1" parent="3vGK_Hoz7SdBbXjUs2pl-5" source="3vGK_Hoz7SdBbXjUs2pl-16" target="3vGK_Hoz7SdBbXjUs2pl-18">
          <mxGeometry relative="1" as="geometry" />
        </mxCell>
        <mxCell id="3vGK_Hoz7SdBbXjUs2pl-16" value="تایید" style="rhombus;whiteSpace=wrap;html=1;fontFamily=Tahoma;fontSize=12;" vertex="1" parent="3vGK_Hoz7SdBbXjUs2pl-5">
          <mxGeometry x="240" y="15" width="50" height="50" as="geometry" />
        </mxCell>
        <mxCell id="3vGK_Hoz7SdBbXjUs2pl-18" value="اتمام" style="ellipse;whiteSpace=wrap;html=1;fontFamily=Tahoma;" vertex="1" parent="3vGK_Hoz7SdBbXjUs2pl-5">
          <mxGeometry x="380" y="5" width="35" height="40" as="geometry" />
        </mxCell>
        <mxCell id="3vGK_Hoz7SdBbXjUs2pl-20" value="خیر" style="text;html=1;align=center;verticalAlign=middle;resizable=0;points=[];autosize=1;strokeColor=none;fillColor=none;fontSize=12;fontFamily=Tahoma;" vertex="1" parent="3vGK_Hoz7SdBbXjUs2pl-5">
          <mxGeometry x="330" width="40" height="30" as="geometry" />
        </mxCell>
        <mxCell id="3vGK_Hoz7SdBbXjUs2pl-23" value="بله" style="text;html=1;align=center;verticalAlign=middle;resizable=0;points=[];autosize=1;strokeColor=none;fillColor=none;fontSize=12;fontFamily=Tahoma;" vertex="1" parent="3vGK_Hoz7SdBbXjUs2pl-5">
          <mxGeometry x="330" y="45" width="40" height="30" as="geometry" />
        </mxCell>
        <mxCell id="3vGK_Hoz7SdBbXjUs2pl-21" value="ارسال برگه به واحد تامین" style="whiteSpace=wrap;html=1;fontFamily=Tahoma;" vertex="1" parent="3vGK_Hoz7SdBbXjUs2pl-5">
          <mxGeometry x="430" y="55" width="130" height="40" as="geometry" />
        </mxCell>
        <mxCell id="3vGK_Hoz7SdBbXjUs2pl-22" value="" style="edgeStyle=orthogonalEdgeStyle;rounded=0;orthogonalLoop=1;jettySize=auto;html=1;fontFamily=Tahoma;fontSize=12;" edge="1" parent="3vGK_Hoz7SdBbXjUs2pl-5" source="3vGK_Hoz7SdBbXjUs2pl-16" target="3vGK_Hoz7SdBbXjUs2pl-21">
          <mxGeometry relative="1" as="geometry">
            <Array as="points">
              <mxPoint x="265" y="75" />
            </Array>
          </mxGeometry>
        </mxCell>
        <mxCell id="3vGK_Hoz7SdBbXjUs2pl-6" value="&lt;font face=&quot;Tahoma&quot; style=&quot;font-size: 18px;&quot;&gt;تامین&amp;nbsp;&lt;/font&gt;" style="swimlane;horizontal=0;whiteSpace=wrap;html=1;" vertex="1" parent="WIyWlLk6GJQsqaUBKTNV-1">
          <mxGeometry x="20" y="270" width="730" height="120" as="geometry" />
        </mxCell>
        <mxCell id="3vGK_Hoz7SdBbXjUs2pl-24" value="دریافت و بررسی درخواست خرید" style="rounded=0;whiteSpace=wrap;html=1;fontFamily=Tahoma;fontSize=12;" vertex="1" parent="3vGK_Hoz7SdBbXjUs2pl-6">
          <mxGeometry x="50" y="20" width="110" height="50" as="geometry" />
        </mxCell>
        <mxCell id="3vGK_Hoz7SdBbXjUs2pl-7" value="&lt;font face=&quot;Tahoma&quot; style=&quot;font-size: 18px;&quot;&gt;امور مالی&lt;/font&gt;" style="swimlane;horizontal=0;whiteSpace=wrap;html=1;" vertex="1" parent="WIyWlLk6GJQsqaUBKTNV-1">
          <mxGeometry x="20" y="390" width="730" height="120" as="geometry" />
        </mxCell>
        <mxCell id="3vGK_Hoz7SdBbXjUs2pl-15" style="edgeStyle=orthogonalEdgeStyle;rounded=0;orthogonalLoop=1;jettySize=auto;html=1;fontFamily=Tahoma;fontSize=12;" edge="1" parent="WIyWlLk6GJQsqaUBKTNV-1" source="3vGK_Hoz7SdBbXjUs2pl-11" target="3vGK_Hoz7SdBbXjUs2pl-14">
          <mxGeometry relative="1" as="geometry">
            <Array as="points">
              <mxPoint x="560" y="140" />
              <mxPoint x="140" y="140" />
            </Array>
          </mxGeometry>
        </mxCell>
        <mxCell id="3vGK_Hoz7SdBbXjUs2pl-25" style="edgeStyle=orthogonalEdgeStyle;rounded=0;orthogonalLoop=1;jettySize=auto;html=1;entryX=0.647;entryY=0.01;entryDx=0;entryDy=0;entryPerimeter=0;fontFamily=Tahoma;fontSize=12;" edge="1" parent="WIyWlLk6GJQsqaUBKTNV-1" source="3vGK_Hoz7SdBbXjUs2pl-21" target="3vGK_Hoz7SdBbXjUs2pl-24">
          <mxGeometry relative="1" as="geometry">
            <Array as="points">
              <mxPoint x="515" y="260" />
              <mxPoint x="141" y="260" />
            </Array>
          </mxGeometry>
        </mxCell>
      </root>
    </mxGraphModel>
  </diagram>
</mxfile>
